<svg xmlns="http://www.w3.org/2000/svg" viewBox="22 -44 96 162" width="92" height="156" fill="none">
  <!-- peeking beet: leaves, head, eyes — drawn first, rim overlaps its chin -->
  <g transform="translate(70,0)">
    <path d="M-3,-16 C-5,-21 -4,-26 -1,-30" stroke="#2C8B4E" stroke-width="2.6" stroke-linecap="round" fill="none"/>
    <path d="M-1,-30 C-5,-32 -6,-37 -2,-39 C3,-41 5,-36 4,-33 C3,-31 1,-30 -1,-30 Z" fill="#3DAE62"/>
    <path d="M-8,-15 C-13,-19 -19,-20 -23,-17 C-27,-14 -25,-9 -20,-9 C-15,-9 -11,-12 -8,-15 Z" fill="#2C8B4E"/>
    <path d="M7,-16 C11,-21 17,-23 21,-20 C25,-17 23,-12 18,-11 C13,-10 9,-13 7,-16 Z" fill="#3DAE62"/>
    <path d="M0,-18 C-14,-18 -22,-9 -22,2 L22,2 C22,-9 14,-18 0,-18 Z" fill="#CE3D80"/>
    <path d="M8,-16 C16,-12 22,-6 22,2 L13,2 C13,-5 12,-11 8,-16 Z" fill="#8E1A52" opacity="0.85"/>
    <circle cx="-9" cy="-5" r="3.8" fill="#3A0D24"/>
    <circle cx="-7.8" cy="-6.2" r="1.3" fill="#FFFFFF"/>
    <circle cx="9" cy="-5" r="3.8" fill="#3A0D24"/>
    <circle cx="10.2" cy="-6.2" r="1.3" fill="#FFFFFF"/>
  </g>
  <!-- flat-rim shield -->
  <path d="M30,2 L110,2 L110,52 C110,82 94,100 70,114 C46,100 30,82 30,52 Z" fill="#B45CE0"/>
  <path d="M38,10 L102,10 L102,52 C102,76 89,90 70,102 C51,90 38,76 38,52 Z" stroke="#D9A6F2" stroke-width="2.5" fill="none" stroke-linejoin="round"/>
  <!-- little hands gripping the rim -->
  <rect x="46" y="-1" width="13" height="8" rx="4" fill="#CE3D80"/>
  <rect x="81" y="-1" width="13" height="8" rx="4" fill="#CE3D80"/></svg>
